<svg xmlns="http://www.w3.org/2000/svg" xmlns:xlink="http://www.w3.org/1999/xlink" version="1.1" x="0px" y="0px" viewBox="0 0 144.083 180" enable-background="new 0 0 144.083 144" xml:space="preserve"><path d="M117.917,49.238c-0.031,0.081-1.297,3.212-4.924,6.94L86.394,29.58c3.144-3.188,5.747-4.521,6.04-4.664l-2.588-5.413  c-0.982,0.47-23.194,11.565-21.384,49.1c-37.586,0.184-47.486,22.944-47.903,23.951l5.536,2.313  c0.144-0.337,1.582-3.542,5.317-7.308l26.634,26.634c-3.245,3.353-6.017,4.686-6.319,4.824l2.443,5.479  c0.979-0.433,23.513-10.897,20.741-49.78c38.968,0.705,48.232-22.345,48.612-23.345L117.917,49.238z M108.42,60.091  c-1.617,1.159-3.482,2.296-5.631,3.347L79.272,39.919c1.029-2.169,2.147-4.054,3.286-5.69L108.42,60.091z M96.733,65.865  c-2.24,0.726-4.703,1.344-7.404,1.821L75.176,53.533c0.437-2.73,1.026-5.224,1.729-7.495L96.733,65.865z M62.371,74.86  c2.062-0.168,4.229-0.261,6.518-0.263c0.19,2.475,0.277,4.823,0.264,7.044L62.371,74.86z M68.658,89.632  c-0.347,2.821-0.853,5.401-1.486,7.739L47.594,77.793c2.216-0.752,4.646-1.405,7.301-1.923L68.658,89.632z M36.001,83.663  c1.621-1.165,3.478-2.311,5.603-3.375l23.369,23.368c-0.972,2.223-2.045,4.158-3.151,5.827L36.001,83.663z M74.471,68.709  c-0.139-2.629-0.144-5.101-0.049-7.444l7.317,7.317C79.458,68.727,77.033,68.77,74.471,68.709z"/><text x="0" y="159" fill="#000000" font-size="5px" font-weight="bold" font-family="'Helvetica Neue', Helvetica, Arial-Unicode, Arial, Sans-serif">Created by Chanut is Industries</text><text x="0" y="164" fill="#000000" font-size="5px" font-weight="bold" font-family="'Helvetica Neue', Helvetica, Arial-Unicode, Arial, Sans-serif">from the Noun Project</text></svg>